# xmcd
#
# Track frame offsets:
#	187
#	18992
#	33567
#	56145
#	74995
#	107717
#	132485
#	152675
#	181477
#	201395
#	225052
#
# Disc length: 3238 seconds
#
# Revision: 1
# Processed by: cddbd v1.5.1PL0 Copyright (c) Steve Scherf et al.
# Submitted via: CDex 1.50Beta5
#
DISCID=9d0ca40b
DTITLE=M-AGE - vibES
DYEAR=1992
DGENRE=Rock
TTITLE0=真夜中の逃亡者
TTITLE1=BODY&SOUL
TTITLE2=月の微笑み
TTITLE3=FLOWERS OF THE SUN
TTITLE4=PASSIONATE
TTITLE5=SOMEDAY CLOSE YOUR EYES
TTITLE6=I’LL KEEP ON HOLDING ON
TTITLE7=SINK
TTITLE8=CHANGE YOUR MIND
TTITLE9=ONE LOVE
TTITLE10=HEAVEN
EXTD=
EXTT0=
EXTT1=
EXTT2=
EXTT3=
EXTT4=
EXTT5=
EXTT6=
EXTT7=
EXTT8=
EXTT9=
EXTT10=
PLAYORDER=
